<?xml version="1.0" encoding="UTF-8" standalone="no"?>
<!-- Created with Inkscape (http://www.inkscape.org/) -->

<svg
   width="455.97766mm"
   height="381.60492mm"
   viewBox="0 0 455.97766 381.60492"
   version="1.1"
   id="svg1"
   xml:space="preserve"
   xmlns="http://www.w3.org/2000/svg"
   xmlns:svg="http://www.w3.org/2000/svg"><defs
     id="defs1" /><g
     id="layer1"
     transform="translate(-30.145368,-63.123121)"><path
       style="fill:#000000;stroke-width:5.24014"
       d="m 257.70576,442.15696 c -3.13497,-3.56226 -2.86864,-7.9942 1.78935,-29.77021 3.25448,-15.21458 3.72542,-19.39582 2.39262,-21.24233 -13.45522,-18.64164 -18.66327,-28.67204 -23.78391,-45.8069 -3.32439,-11.12399 -3.69221,-14.4555 -3.61837,-32.76926 0.0655,-16.24092 0.68004,-22.67349 3.02199,-31.63398 11.91985,-45.60728 45.0048,-77.11829 91.7656,-87.40035 18.18159,-3.99789 47.21987,-3.36771 64.7678,1.40549 52.69379,14.33336 86.76302,55.66767 91.73912,111.30209 1.96947,22.01954 -4.69687,51.9497 -15.97053,71.70371 -6.80784,11.92875 -27.24167,33.19928 -38.29717,39.86529 -30.677,18.49698 -73.02732,23.55399 -106.97004,12.7731 l -8.45962,-2.68694 -24.46635,8.41573 c -13.45648,4.6286 -26.08218,8.41567 -28.05705,8.41567 -1.97485,0 -4.60891,-1.15696 -5.85344,-2.57111 z m 39.43757,-26.30371 19.1411,-6.57612 8.85221,3.03179 c 4.86864,1.6675 14.71264,4.05454 21.87551,5.30458 11.14892,1.94568 15.16958,2.02891 27.93435,0.57791 39.11088,-4.44583 67.34876,-23.59273 83.44996,-56.58396 10.33297,-21.17214 13.10627,-50.92515 6.99549,-75.04937 -7.63981,-30.16053 -31.63592,-57.34399 -61.46126,-69.625 -27.04816,-11.13746 -61.61195,-11.32977 -89.59505,-0.49843 -42.36141,16.3965 -68.18846,60.22982 -63.03772,106.98668 2.28544,20.74659 8.92793,36.71223 22.61613,54.35976 4.12843,5.32257 7.50625,10.45713 7.50625,11.41016 0,0.95304 -1.53815,8.73962 -3.41804,17.30352 -3.97637,18.114 -3.9228,17.59167 -1.70905,16.65665 0.93996,-0.39696 10.32252,-3.68111 20.85012,-7.29801 z m 45.94502,-49.18173 c -14.5417,-4.19864 -28.85471,-14.47424 -28.85471,-20.71535 0,-8.22296 9.208,-11.56278 15.39638,-5.58435 1.68805,1.63076 6.75882,4.71906 11.26847,6.86287 14.97837,7.12063 33.81546,4.73963 46.01471,-5.81617 5.44593,-4.7123 11.30119,-4.67925 14.33416,0.0808 3.16809,4.97201 1.30282,9.82072 -5.97321,15.52758 -12.83553,10.06737 -35.93563,14.33655 -52.1858,9.64464 z m -35.20809,-59.62349 c -2.60307,-1.63225 -4.9401,-4.68453 -5.91672,-7.7275 -4.74177,-14.77474 12.17394,-26.88158 23.23381,-16.62879 7.61422,7.05858 6.7816,18.9285 -1.70089,24.24682 -5.62176,3.52467 -10.11934,3.5562 -15.6162,0.10954 z m 86.22689,0.0573 c -9.16901,-5.7497 -9.5456,-18.96598 -0.71425,-25.06948 5.6806,-3.92597 10.38624,-4.06216 16.12059,-0.46654 11.9215,7.475 5.99883,28.20528 -8.05155,28.18178 -1.72932,-0.002 -5.03893,-1.19343 -7.35479,-2.64565 z M 56.078302,392.91567 C 47.382621,389.74366 40.475089,383.28207 35.56588,373.72731 L 31.953992,366.69755 30.848969,243.67642 C 30.241187,176.01478 29.975626,116.19192 30.258807,110.73671 31.538386,86.086169 48.405092,67.81109 73.602485,63.773693 c 16.546619,-2.651232 34.976615,2.952196 46.206495,14.04853 5.63583,5.568847 17.24507,23.126127 55.28199,83.605787 12.64452,20.10514 23.26109,36.55485 23.59244,36.55485 0.51895,0 32.85756,-51.6673 62.03816,-99.118065 4.99249,-8.118387 11.72503,-17.500953 14.96113,-20.850055 22.45628,-23.240495 67.54554,-18.322148 83.15664,9.070797 6.40751,11.243418 7.49024,18.495283 8.31815,55.713573 l 0.774,34.79741 h -7.87415 c -13.03358,0 -36.10954,4.10935 -50.30026,8.95737 -7.34994,2.51102 -13.65624,4.26448 -14.01403,3.89655 -0.35758,-0.36773 -0.65056,-6.03648 -0.65056,-12.59686 v -11.92783 l -26.84131,39.92978 c -14.76279,21.96139 -30.47757,45.48108 -34.92174,52.26596 -9.12366,13.92905 -15.82144,19.66318 -25.86039,22.13967 -11.6708,2.8791 -26.14039,-1.35334 -35.19581,-10.29508 -4.74499,-4.6854 -6.24084,-6.8356 -45.92216,-66.00789 -13.35303,-19.91183 -24.59564,-36.20336 -24.98355,-36.20336 -0.38809,0 -0.48729,44.12945 -0.22116,98.06542 l 0.48419,98.06536 -2.989315,6.65486 c -9.152503,20.37569 -25.084339,28.75097 -42.562985,22.37525 z"
       id="path3" /></g></svg>
