<svg width="16" height="16" viewBox="0 0 16 16" fill="none" xmlns="http://www.w3.org/2000/svg">
  <path d="M5.64129 6.2923C5.37235 6.2923 5.1532 6.51145 5.1532 6.78039C5.1532 7.04932 5.37235 7.26847 5.64129 7.26847C5.91022 7.26847 6.12937 7.04932 6.12937 6.78039C6.12937 6.51145 5.91022 6.2923 5.64129 6.2923ZM9.22399 6.2923C8.95505 6.2923 8.7359 6.51145 8.7359 6.78039C8.7359 7.04932 8.95505 7.26847 9.22399 7.26847C9.49292 7.26847 9.71207 7.04932 9.71207 6.78039C9.71207 6.51145 9.49292 6.2923 9.22399 6.2923ZM6.70741 9.63023C6.49664 9.63023 6.32538 9.80149 6.32538 10.0123C6.32538 10.223 6.49664 10.3943 6.70741 10.3943C6.91819 10.3943 7.08945 10.223 7.08945 10.0123C7.08945 9.80149 6.91819 9.63023 6.70741 9.63023ZM9.05273 9.63023C8.84196 9.63023 8.6707 9.80149 8.6707 10.0123C8.6707 10.223 8.84196 10.3943 9.05273 10.3943C9.26351 10.3943 9.43477 10.223 9.43477 10.0123C9.43477 9.80149 9.26351 9.63023 9.05273 9.63023Z" fill="#424242"/>
  <path fill-rule="evenodd" clip-rule="evenodd" d="M1 1.5L2.5 1H13.5L15 1.5V12L14 14H8.90386L7.96822 15.0996L7 16H6.5L5.5 15L4.5 14L2 12.5V1.5H1ZM3 2V12L4.5 13H5.5L6.5 14L7.5 13H13L14 12V2H3ZM5.67578 5.5C4.05078 5.5 2.75 6.5 2.75 7.75C2.75 8.2 2.9 8.6 3.15 8.95C3.3 9.15 3.2 9.25 3.15 9.4L3 9.7C2.95 9.85 2.9 10 3.1 10.1C3.2 10.15 3.35 10.1 3.45 10.05L4 9.75C4.05 9.7 4.15 9.65 4.2 9.7C4.6 9.85 5.15 9.95 5.7 9.95C5.8 9.95 5.85 10 5.85 10.1C5.85 11.2 7 12.1 8.45 12.1C8.9 12.1 9.35 12.05 9.7 11.9C9.75 11.9 9.85 11.9 9.9 11.95L10.45 12.25C10.6 12.35 10.7 12.35 10.8 12.25C10.95 12.2 10.95 12.05 10.9 11.9L10.75 11.6C10.75 11.5 10.7 11.4 10.75 11.35C11.05 11 11.2 10.6 11.2 10.1C11.15 8.85 9.95 7.95 8.45 7.95L8.20571 7.95645C8.28638 7.87809 8.36226 7.79545 8.43313 7.70823C8.57478 7.53333 8.6894 7.33772 8.77138 7.12726C8.88353 6.84091 8.94358 6.52978 8.94358 6.2C8.94358 4.95 7.45 3.95 5.67578 3.95C3.90156 3.95 2.40798 4.95 2.40798 6.2C2.40798 6.58261 2.49342 6.94567 2.64878 7.27069C2.81539 7.61748 3.05728 7.91869 3.35687 8.15951C3.25304 8.03553 3.16551 7.90081 3.09607 7.75747C2.96889 7.48649 2.90157 7.18665 2.90157 6.875C2.90157 5.85 4.15157 5 5.67578 5C7.2 5 8.45 5.8 8.45 6.875C8.45 7.25 8.3 7.55 8.05 7.85C7.75 8.2 7.3 8.45 6.75 8.45H5.67578C4.15157 8.45 2.90157 7.65 2.90157 6.625V5.5H5.67578Z" fill="#424242"/>
</svg>
